<svg xmlns="http://www.w3.org/2000/svg" width="75" height="75" viewBox="0 0 75 75"><title>ai-icon</title><path d="M1121.56,316.43v-.1c-.2-6.7.51-18.88-.78-25.68-2.8-13.3-18.11-11.18-28.73-10a193.31,193.31,0,0,1-27.5-.46c-22.22-1.68-17.53,18.93-17.6,32v.1c1.16,12.45-2.17,23.69,1.79,35.85a2,2,0,0,0,.08.22c5.43,11.58,37.82,3.67,45.45,5.58l.19,0C1128.13,357,1120.22,338.71,1121.56,316.43Zm-28.85,13.82a1.3,1.3,0,0,1-.14,1.27c-1.35,1.66-6.5,1.31-7.84-1-1.09-1.81-.48-3.26-1.77-5.17a1.34,1.34,0,0,0-.83-.54c-6.74-1.48-10.79-2.34-12.45,5.77a1.43,1.43,0,0,1-.77,1,7.35,7.35,0,0,1-4.45.36,1.35,1.35,0,0,1-1-.93c-1.18-3.53,1.35-7.63,2.23-11.67l0-.1C1079.75,275.13,1084.65,309.72,1092.71,330.25Zm3.38-31c3-4.12,8.53-3.28,7.27,3.67a1.31,1.31,0,0,1-.46.8c-2.83,2.23-7.88,1.16-7.07-3.86A1.51,1.51,0,0,1,1096.09,299.27Zm7.9,22.45c-.48,2-.3,7.85-1.79,10a1.27,1.27,0,0,1-1,.53c-1.83.19-5.26.38-5.54-2.18.26-6.6-.3-14.08.92-21.29a1.35,1.35,0,0,1,.76-1c8-3.69,6.44,7.48,6.66,13.57A1.67,1.67,0,0,1,1104,321.72Z" transform="translate(-1046.58 -279.75)" fill="#242944"/><path d="M1092.89,330.71a1.33,1.33,0,0,0-.12-.55c-5.38-11.68-12.25-51.84-23.33-20.62-2,6.4-7,13.63-5.84,21.33a1.39,1.39,0,0,0,1.07,1.12c4.33,1,5.84-1.93,6.6-6.4a1.38,1.38,0,0,1,1.06-1.1c18.12-4,6.73,10.74,19.49,7.6a1.42,1.42,0,0,0,1.07-1.35Zm-19.37-13.63c-.64-2.06,1-5.75,2.48-8.74a1.4,1.4,0,0,1,2.6.19,54.73,54.73,0,0,1,1.68,8.05,1.39,1.39,0,0,1-1,1.53,13.85,13.85,0,0,1-4.62-.12A1.34,1.34,0,0,1,1073.52,317.08Z" transform="translate(-1046.58 -279.75)" fill="none"/><path d="M1103,303.71c-2.9,2.65-9.32.34-6.63-4.61l.17-.25c3.27-4.15,8.16-1.91,6.84,4.17A1.39,1.39,0,0,1,1103,303.71Z" transform="translate(-1046.58 -279.75)" fill="none"/><path d="M1104,321.61c-.06,1.08-.92,6.74-1.33,9.48a1.37,1.37,0,0,1-1.39,1.18c-2,0-5.41.35-5.62-2.21.15-6.61-.11-14.39.87-21.56a1.4,1.4,0,0,1,1.17-1.19c8.42-1.42,5.67,7.38,6.3,14.13Z" transform="translate(-1046.58 -279.75)" fill="none"/><path d="M1092.89,330.71a1.33,1.33,0,0,0-.12-.55c-5.38-11.68-12.25-51.84-23.33-20.62-2,6.4-7,13.63-5.84,21.33a1.39,1.39,0,0,0,1.07,1.12c4.33,1,5.84-1.93,6.6-6.4a1.38,1.38,0,0,1,1.06-1.1c18.12-4,6.73,10.74,19.49,7.6a1.42,1.42,0,0,0,1.07-1.35Zm-19.37-13.63c-.64-2.06,1-5.75,2.48-8.74a1.4,1.4,0,0,1,2.6.19,54.73,54.73,0,0,1,1.68,8.05,1.39,1.39,0,0,1-1,1.53,13.85,13.85,0,0,1-4.62-.12A1.34,1.34,0,0,1,1073.52,317.08Z" transform="translate(-1046.58 -279.75)" fill="none"/><path d="M1080.52,316.76c0,1.81-7.86,2.73-7.3-.48C1076.29,304.32,1078.16,304.6,1080.52,316.76Z" transform="translate(-1046.58 -279.75)" fill="#242944"/><path d="M1103,303.71c-2.9,2.65-9.32.34-6.63-4.61l.17-.25c3.27-4.15,8.16-1.91,6.84,4.17A1.39,1.39,0,0,1,1103,303.71Z" transform="translate(-1046.58 -279.75)" fill="none"/><path d="M1104,321.61c-.06,1.08-.92,6.74-1.33,9.48a1.37,1.37,0,0,1-1.39,1.18c-2,0-5.41.35-5.62-2.21.15-6.61-.11-14.39.87-21.56a1.4,1.4,0,0,1,1.17-1.19c8.42-1.42,5.67,7.38,6.3,14.13Z" transform="translate(-1046.58 -279.75)" fill="none"/></svg>