<svg xmlns="http://www.w3.org/2000/svg" width="75" height="75" viewBox="0 0 75 75"><title>codepen-hover-icon</title><path d="M215.22,592l-.06-14.48a10.41,10.41,0,0,0-.48-3.77c-1.09-2.78-4.21-4-6.86-5.36-8.7-4.37-15-12.27-23.73-16.62a9.75,9.75,0,0,1-2.69-1.8c-1-.89-2.09-1.87-3.51-1.63a5.1,5.1,0,0,0-1.76.84l-31.38,20.52c-1.41.92-3.74,1.57-3.78,3.25-.08,3.84-1.06,7.44-.48,11.24a29.07,29.07,0,0,1,.16,8.38c-.31,2.26-.9,4.74.24,6.71.89,1.56,2.65,2.37,4.27,3.15a115.32,115.32,0,0,1,13.14,7.5q7.44,4.82,14.43,10.28c2.12,1.64,4.53,3.43,7.18,3s4.42-2.78,6.53-4.42a51.19,51.19,0,0,1,5.82-3.41c4.55-2.7,8.14-6.77,12.64-9.54,3.47-2.13,7.69-3.75,9.4-7.44A15.06,15.06,0,0,0,215.22,592Zm-33.73-34,16.58,10.86,3.13,2,5.19,3.41c-.38,0-8.72,6.44-9.79,6.93-1.8.82-2.52.15-3.9-1.07A23,23,0,0,0,188,576.9c-2.15-1.09-4.54-1.89-6.19-3.66a2.5,2.5,0,0,1-.74-1.32,3.54,3.54,0,0,1,.28-1.5C182.47,566.4,180.12,561.94,181.49,558ZM159,567.51c1.72-1.1,3.5-2.11,5.26-3.16s3.67-2.28,5.45-3.5c1.05-.71,3.44-3.21,4.83-2.51s1.1,4.32,1.15,5.64a36.78,36.78,0,0,1-.43,6.87,3.71,3.71,0,0,1-.54,1.64,4,4,0,0,1-1,.92l-11.94,8.16a1.42,1.42,0,0,1-1.06.36,1.46,1.46,0,0,1-.69-.54c-2.71-3-7.29-3.78-10-6.83A58.14,58.14,0,0,1,159,567.51Zm-11.64,13a3,3,0,0,1,2.13.72c.61.46,1.12,1,1.7,1.55s3.36,1.65,3.58,2.49-2.1,2.6-2.75,3.2a16.87,16.87,0,0,1-4.92,3.15C147.34,587.9,147.42,584.19,147.34,580.49ZM175,613.87c-5.81-2.91-11.05-6.83-16.47-10.41-2.36-1.56-4.78-3.07-7.22-4.51a2.11,2.11,0,0,1-1.07-1c-.33-1.07,1-1.83,2-2.24a16.64,16.64,0,0,0,5.42-3.49,9.44,9.44,0,0,1,2.09-1.75c2-1,5,1.3,6.71,2.25a32.48,32.48,0,0,1,6.71,4.69,6.62,6.62,0,0,1,1.47,1.83,7.36,7.36,0,0,1,.5,3.06C175.2,606.13,175.16,610,175,613.87Zm4.23-20.51a1.43,1.43,0,0,1-2,0c-3.22-2.24-6.43-4.5-9.64-6.74-.23-.15-.47-.35-.48-.62s.26-.5.49-.67l8.54-5.88a2.48,2.48,0,0,1,3.4-.07c1.72,1,9.86,4.71,9.51,6.84-.22,1.33-3.58,2.94-4.61,3.66Q181.83,591.66,179.22,593.36Zm21.31,8.16c-4.62,3.19-9.7,5.83-14,9.42-1.61,1.34-2.58,2.43-5,3.12q-.17-6.88-.31-13.78a2.82,2.82,0,0,1,.3-1.68,2.7,2.7,0,0,1,.91-.8l9.16-6c1.34-.88,2.88-1.79,4.43-1.41a6.73,6.73,0,0,1,2.68,1.76,27.62,27.62,0,0,0,3.43,2.57c.87.54,3.16,1.41,3.56,2.44C206.61,599.45,202,600.54,200.53,601.52Zm8.79-12.31a6.61,6.61,0,0,1-.72,2c-.89-1.25-2.57-1.56-3.85-2.38-.72-.44-2.77-1.79-2.9-2.67-.2-1.34,2-1.92,2.91-2.38a9,9,0,0,0,2.28-1.46,11.68,11.68,0,0,1,1.06-1,1.4,1.4,0,0,1,1.41-.22c.37,1.38-.59,2.76-.66,4.19S209.48,587.87,209.32,589.21Z" transform="translate(-140.22 -548.28)" fill="#f6df92"/></svg>