<svg xmlns="http://www.w3.org/2000/svg" width="65" height="75" viewBox="0 0 65 75"><title>css-icon</title><path d="M1298.57,373.86a12.75,12.75,0,0,0-5.25-.94l-15.17-.57-12.49-.47-11.93-.44c-4.87-.19-13.35-.47-15.9,5.07-.79,1.73-.09,3.23.33,5a57.44,57.44,0,0,1,.95,9.45l2.88,43c6,4.25,12.62,7.07,19.19,9.87,2.78,1.18,5.62,2.39,8.58,2.56,3.65.22,7.21-1.14,10.69-2.47a143,143,0,0,0,14.62-6.25,5.48,5.48,0,0,0,2.35-1.87,7.77,7.77,0,0,0,.8-3.32c1-10.8,1.76-21.62,2.55-32.43.38-5.19.16-10.89,1.34-15.95.84-3.57.38-7.91-3.16-10A2.82,2.82,0,0,0,1298.57,373.86Zm-11.79,12.58c-.09,2.18-.28,4.56-1.59,6.06a7.76,7.76,0,0,1-1.81,1.38l-10.44,6.29a31,31,0,0,1,11.24-.31,1.67,1.67,0,0,1,1.2.57,2.1,2.1,0,0,1,.27.95c.25,2.38-.41,4.74-.81,7.09-.78,4.61-.56,9.37-.86,14.07a2.49,2.49,0,0,1-.29,1.26,1.92,1.92,0,0,1-1,.67c-4.23,1.86-8.34,4.93-12.85,4.53-2.86-.26-5.62-1.94-8.27-2.44a5.65,5.65,0,0,1-2.86-1.46c-.39-.38-1.21-.46-1.6-1a2.58,2.58,0,0,1-.34-1.12c-.45-3.27-.75-6.57-.9-9.88a2.29,2.29,0,0,1,.29-1.53,1.6,1.6,0,0,1,1.16-.41l3.66-.21a1.47,1.47,0,0,1,.86.12,1.52,1.52,0,0,1,.62,1c.53,2-.57,4.62.7,6.11a3.3,3.3,0,0,0,1.39.85,15.43,15.43,0,0,0,11.92-.57,2.23,2.23,0,0,0,.93-.68,3.32,3.32,0,0,0,.37-1.3l.93-7.15a2.28,2.28,0,0,0,0-.78c-.19-.9-1.22-1-2-1a181.34,181.34,0,0,1-21.11.35l-.12-6.76a4.4,4.4,0,0,1,.17-1.54,3.07,3.07,0,0,1,1-1.23c2.4-2.09,5.33-3.07,8.16-4.11a4.14,4.14,0,0,0,2.85-2.35,29.06,29.06,0,0,0-9.11.49c-1.1.23-3.12.82-4.08-.17-.76-.79-1.08-3.22-1.13-4.35a4.62,4.62,0,0,1,1.24-3.67c1.23-1.08,2.94-.72,4.46-.49,6,1,12.1-.66,18.17-.59a32.65,32.65,0,0,1,8.37,1.18,1.6,1.6,0,0,1,.88.46A2.44,2.44,0,0,1,1286.78,386.44Z" transform="translate(-1237.47 -371.36)" fill="#242944"/></svg>