<svg xmlns="http://www.w3.org/2000/svg" width="75" height="75" viewBox="0 0 75 75"><title>figma-icon</title><path d="M1402,294.27a26.16,26.16,0,0,0-.42-5.07,16,16,0,0,0-9.27-10.87c-4.54-2-6.7-.64-12.65-1l-26.38-.4a53.75,53.75,0,0,0-11.76.68c-3.85.81-7.64,2.54-10.15,5.53-4,4.68-4.12,11.32-4.09,17.4q.06,14.38.12,28.74c0,6.21.33,13.11,4.77,17.53a16.93,16.93,0,0,0,9.74,4.33,68.09,68.09,0,0,0,10.88.21c9.74-.19,19.47.7,29.21.53a30.08,30.08,0,0,0,8.67-1.1,16.78,16.78,0,0,0,11.11-12.12,31.72,31.72,0,0,0,.5-6.88Q1402.3,313,1402,294.27Zm-36.81,35.43a18.15,18.15,0,0,1-1.07,6.06,10.14,10.14,0,0,1-1.59,2.81,8.87,8.87,0,0,1-7.4,2.84,13,13,0,0,1-7.39-3.27,6.79,6.79,0,0,1-1.63-1.84,8.11,8.11,0,0,1-.79-3.87,8.54,8.54,0,0,1,.48-3.66c1-2.27,3.64-3.6,5.11-4.76a2.14,2.14,0,0,1,1.33-.4c.38,0,12.24-1.43,12.63-1.51-.87-.15-13.18.83-13.93.39a8,8,0,0,1-2.08-1.81,9.32,9.32,0,0,1-2.5-5.5c-.15-3.28,2.12-6.13,4.39-8.51a3.53,3.53,0,0,1,.88-.77,4,4,0,0,1,1.15-.4c1-.25,10.46-.63,11.52-.79-.75-.12-9.85-.08-10.59-.26a10,10,0,0,1-5.24-2.74,7.72,7.72,0,0,1-1.77-4.14,10.68,10.68,0,0,1,3.57-9.33,7.15,7.15,0,0,1,2-1.21,10,10,0,0,1,4.08-.43c2.72.08,5.45.17,8.17.27l.31,0a2.76,2.76,0,0,1,1.75-.32,63.65,63.65,0,0,1,10.33.45,7.6,7.6,0,0,1,3.82,1.21,6.75,6.75,0,0,1,2.2,4.24,21.19,21.19,0,0,1,.37,3.38A5.47,5.47,0,0,1,1381,301c-4.37,3.73-10.46,2.3-16.09,3.56l-.17,0-.07,0-.41.08.16,4.91.33,10.4.08,2.08.05,1.66a1.72,1.72,0,0,0,.09.44C1365.51,325.68,1365.22,328.44,1365.19,329.7Zm16.1-9.43c-2.36,2.41-6.14,3-9.46,2.33a8.44,8.44,0,0,1-3.18-1.23,7.17,7.17,0,0,1-1.42-1.33,9.64,9.64,0,0,1-1.07-10.61,8.38,8.38,0,0,1,2.15-2.55c2-1.56,4.8-2,7.19-2.38a1.54,1.54,0,0,1,.64,0C1382.41,306.2,1386.07,315.34,1381.29,320.27Z" transform="translate(-1327.28 -276.9)" fill="#242944"/></svg>