<svg xmlns="http://www.w3.org/2000/svg" width="75" height="75" viewBox="0 0 75 75"><title>github-hover-icon</title><path d="M169.71,793.78a11.28,11.28,0,0,1-14.45-5.69c-.57-1.36-.89-2.9-1.95-3.93-.71-.7-1.73-1.16-2.09-2.08,1.13-1.71,3.93-1.09,5.36.38s2.2,3.51,3.76,4.84c2.57,2.2,6.39,1.86,9.74,1.36-.83-1.7,1.19-4.11-.16-5.44a3.22,3.22,0,0,0-1.61-.66,21.21,21.21,0,0,1-15-12c-2.56-6.14-1.42-13.79,3.24-18.55a2.55,2.55,0,0,0,.85-1.29c.12-.79-1-1.3-1-2.1-.07-2.77-1-4.75.61-7.71a2.82,2.82,0,0,1,1.06-1.16,3.19,3.19,0,0,1,1.84-.28,11.57,11.57,0,0,1,8,4.12,3,3,0,0,0,1.11,1,2.67,2.67,0,0,0,1.43,0c3.18-.62,6.38-1.49,9.61-1.22,2.37.19,4.73,1,7.08.61,4.26-.71,7.56-5.21,11.84-4.68a11.92,11.92,0,0,1,1.1,9.9,3,3,0,0,0-.27,1.47,3,3,0,0,0,.57,1.08,22.56,22.56,0,0,1,2.56,20.94,15.48,15.48,0,0,1-3.14,5.11c-3.29,3.4-8.24,4.51-12.89,5.45,1.86,4.81,1,10.17.55,15.3-.13,1.6,0,3.57,1.43,4.28,1.11.56,2.44,0,3.55-.53a43.3,43.3,0,0,0,22.09-27.7,40.11,40.11,0,0,0,1.05-6.26A36.87,36.87,0,0,0,193.37,731a38.55,38.55,0,0,0-37.44,4.28A37.31,37.31,0,0,0,146.29,785c3.29,5.32,4.53,8,9.37,12,2,1.65,9.05,6.92,12,5.7a3.86,3.86,0,0,0,2-3C169.74,799.15,169.76,793.75,169.71,793.78Z" transform="translate(-140.73 -728.01)" fill="#f6df92"/></svg>