<svg xmlns="http://www.w3.org/2000/svg" width="75" height="75" viewBox="0 0 75 75"><title>github-icon</title><path d="M446.19,667.81a11.28,11.28,0,0,1-14.46-5.68c-.56-1.36-.89-2.9-1.94-3.94-.71-.69-1.74-1.15-2.09-2.08,1.13-1.71,3.92-1.08,5.35.39s2.21,3.51,3.77,4.84c2.56,2.19,6.38,1.85,9.73,1.36-.82-1.7,1.2-4.12-.15-5.44a3.25,3.25,0,0,0-1.61-.66,21.24,21.24,0,0,1-15-12.06c-2.56-6.14-1.42-13.78,3.24-18.55a2.55,2.55,0,0,0,.86-1.28c.12-.79-1-1.3-1-2.1-.07-2.77-1-4.75.61-7.71a2.83,2.83,0,0,1,1.06-1.16,3.21,3.21,0,0,1,1.84-.28,11.53,11.53,0,0,1,8,4.12,2.92,2.92,0,0,0,1.11,1,2.57,2.57,0,0,0,1.43,0c3.18-.62,6.38-1.49,9.61-1.22,2.37.19,4.74,1,7.08.6,4.26-.71,7.56-5.2,11.85-4.67a11.94,11.94,0,0,1,1.09,9.89,3,3,0,0,0-.26,1.48,2.69,2.69,0,0,0,.56,1.07,22.55,22.55,0,0,1,2.56,20.95,15.31,15.31,0,0,1-3.14,5.11c-3.29,3.4-8.24,4.5-12.89,5.45,1.86,4.81,1,10.16.55,15.3-.13,1.59,0,3.56,1.43,4.28,1.11.55,2.45,0,3.56-.53A43.32,43.32,0,0,0,491,648.58a41.47,41.47,0,0,0,1.06-6.27,36.93,36.93,0,0,0-22.22-37.26,38.55,38.55,0,0,0-37.44,4.28A37.31,37.31,0,0,0,422.76,659c3.3,5.32,4.54,8,9.38,12,2,1.65,9,6.92,11.94,5.7a3.85,3.85,0,0,0,2-3C446.22,673.18,446.24,667.79,446.19,667.81Z" transform="translate(-417.21 -602.05)" fill="#b7c0ec"/></svg>