<svg xmlns="http://www.w3.org/2000/svg" width="65" height="75" viewBox="0 0 65 75"><title>html-icon</title><path d="M1212.81,377.22a3.85,3.85,0,0,0-1.84-1.79,13.23,13.23,0,0,0-6.09-1q-12.06-.17-24.11-.06c-7.06.06-14.32.79-21.35,0-2.41-.28-8.31-1.4-10.18.55a3.83,3.83,0,0,0-.81,2.12c-.64,4.24-.22,8.56.18,12.82q2.27,23.74,4.53,47.5a6.94,6.94,0,0,0,.86,3.22c.87,1.31,2.47,1.85,4,2.31q9.4,2.84,18.89,5.31a14.38,14.38,0,0,0,3.36.6,14.2,14.2,0,0,0,3.55-.55l16.89-4a11.17,11.17,0,0,0,4.23-1.65c2.37-1.8,2.91-5.09,3.28-8.06.56-4.71,1.13-9.41,1.65-14.12q2.24-20.28,3.27-40.65A5.55,5.55,0,0,0,1212.81,377.22Zm-14,18.56c-1.85,1-5.32.11-7.29,0a218.36,218.36,0,0,0-21.86.31,1.66,1.66,0,0,0-1.13.35,1.69,1.69,0,0,0-.33,1.17,23.3,23.3,0,0,0,1.17,7.41l25,.2a5.83,5.83,0,0,1,3.72.86c1.57,1.24,1.49,3.59,1.28,5.56-.54,5-1.1,10.09-1.64,15.12a5.36,5.36,0,0,1-.7,2.51,5.48,5.48,0,0,1-3.17,1.81l-9.3,2.74a11.83,11.83,0,0,1-2.61.57c-3.13.21-6.68-.81-9.75-1.46-2.9-.62-5.56-1.18-7.63-3.3a7.61,7.61,0,0,1-1.72-4.39,32.78,32.78,0,0,1-.26-5.69,3.29,3.29,0,0,1,.59-2.06,3.46,3.46,0,0,1,2.3-.88,8.15,8.15,0,0,1,2.83,0,2.72,2.72,0,0,1,2.06,1.78,8.28,8.28,0,0,1,.1,1.66c.14,3.07,3.41,5,6.42,5.63a17.93,17.93,0,0,0,9.52-.76,5.21,5.21,0,0,0,3.89-4.05,14.54,14.54,0,0,0,.45-5.76,2.45,2.45,0,0,0-.67-1.64,2.61,2.61,0,0,0-1.51-.48,139.14,139.14,0,0,0-23.45-.5c-1.49.09-3.21.12-4.15-1.05a4.75,4.75,0,0,1-.73-2.69l-1-16.21a4.46,4.46,0,0,1,4.57-4.75q14.61.33,29.23-.16c2.66-.09,5.47-.17,7.82,1.08C1202.33,389.52,1200,395.12,1198.81,395.78Z" transform="translate(-1148.1 -373.74)" fill="#242944"/></svg>