<svg xmlns="http://www.w3.org/2000/svg" width="75" height="75" viewBox="0 0 75 75"><title>id-icon</title><path d="M1217.33,290.29c-1.1-4.34-4-8.52-8.24-9.85a19.34,19.34,0,0,0-5.84-.58c-12,.05-24.08-.28-36.09,0-3.52.09-7.05.27-10.57.27a17.48,17.48,0,0,0-5.25.66c-3.51,1.18-6,4.49-7.11,8s-1.14,7.34-1.13,11.05q0,9.5,0,19c0,7.14,0,14.29.35,21.42.16,3.39.46,7,2.49,9.73a11.84,11.84,0,0,0,7,4.16,35,35,0,0,0,8.25.56l39.69-.46c4,0,8.21-.19,11.38-2.56,4.3-3.25,5-9.36,5.2-14.76.35-11.1-.08-22.21.42-33.29C1218.09,299.19,1218.43,294.63,1217.33,290.29ZM1170.2,332a1.82,1.82,0,0,1-.56.94,2,2,0,0,1-1.31.24,9.9,9.9,0,0,1-4-1.16,1.71,1.71,0,0,1-.67-.55,1.83,1.83,0,0,1-.21-.87c-.61-8.75-.06-17.54.06-26.32a10.33,10.33,0,0,0-.26-2.94,1.21,1.21,0,0,1,0-.71,2.7,2.7,0,0,1,2.73-1.84c1.07,0,2.14.07,3.2.14,1.58.11,1.19.69,1.12,2.17q-.63,13.51.07,27.05A11.31,11.31,0,0,1,1170.2,332Zm28-5.23c-.23,2.25-.83,4.71-3.18,5.47-2.82.93-5.92.61-8.81.16a19.81,19.81,0,0,1-5.14-1.36,9.55,9.55,0,0,1-3.85-3.56c-.35-.55-.52-.66-.84-1.17-.21-.33-.39-1.11-.56-1.46a3.58,3.58,0,0,1-.26-1.25,20,20,0,0,1,1.22-9.13,12.24,12.24,0,0,1,6.21-6.6c2.39-1,5-1.1,7.64-1.34a.87.87,0,0,0,.67-.26.9.9,0,0,0,.1-.56c-.07-2.48-.14-5-.22-7.45a2.44,2.44,0,0,1,.62-2.07,2.26,2.26,0,0,1,1.58-.26c1.24.1,2.47.27,3.68.48a1.16,1.16,0,0,1,1.19,1.46c-.16,5.45-.56,10.91-.26,16.35.12,2.06.33,4.11.4,6.17A48.52,48.52,0,0,1,1198.2,326.8Z" transform="translate(-1143.1 -279.75)" fill="#242944"/><path d="M1190.49,326.61c-1,.72-3.11-.11-4.1-.53a5.75,5.75,0,0,1-3-2.64c-1.06-2.1-.33-4.65.61-6.81a9.43,9.43,0,0,1,1.88-3,3.68,3.68,0,0,1,3.26-1.07h0A2.57,2.57,0,0,1,1191,315l.3,6.79C1191.4,323,1191.69,325.73,1190.49,326.61Z" transform="translate(-1143.1 -279.75)" fill="#242944"/></svg>