<svg xmlns="http://www.w3.org/2000/svg" width="75" height="75" viewBox="0 0 75 75"><title>js-icon</title><path d="M1121.34,391.65c.27-3.88.7-8-1.2-11.44a12.4,12.4,0,0,0-7.69-5.52,37.12,37.12,0,0,0-9.65-.93c-11.13-.09-22.1.14-33.22.28-3.17,0-6.34.21-9.51.21s-6.27.28-8.8,2a11.12,11.12,0,0,0-4.26,7,34.29,34.29,0,0,0-.33,8.35q.78,19.23.64,38.47c0,3.47-.06,7,.94,10.32s3.24,6.46,6.49,7.65a16.79,16.79,0,0,0,5.83.69l45,0a27.18,27.18,0,0,0,4.41-.24c2.94-.49,5.42-.1,7.72-2a7.32,7.32,0,0,0,2.51-3c.19-.37.86-4.65.9-5.07C1122.2,427.59,1120.22,408.52,1121.34,391.65Zm-34.22,44.13a6.79,6.79,0,0,1-.69,2.78,7.12,7.12,0,0,1-1.92,2.48,12.19,12.19,0,0,1-6.36,1.93,4.56,4.56,0,0,1-1.27-.21c-2.65-.76-5.49-1.23-7.82-2.9a4.78,4.78,0,0,1-.74-.68c-2.16-2.4-1.71-2.41-1.52-3.85.88-1.59,1.79-2.78,3.48-2.76,3.06,0,3.84,3.72,6.73,3.75a3.48,3.48,0,0,0,3.27-2.35,7,7,0,0,0,.22-2q.12-10.71.23-21.4c0-1.12.15-2.47,1.15-3a2.47,2.47,0,0,1,1-.22,9.46,9.46,0,0,1,3.95.52,1.68,1.68,0,0,1,.81.51,1.77,1.77,0,0,1,.23,1A187.54,187.54,0,0,1,1087.12,435.78Zm28.54-.36c-1.4,4-5.58,6.47-9.76,6.93a15.89,15.89,0,0,1-12.91-4.63,2.1,2.1,0,0,1-.52-.77,2,2,0,0,1,.76-1.87,14.81,14.81,0,0,1,2.52-2.09,2.46,2.46,0,0,1,.91-.4c.84-.14,1.56.51,2.18,1.08,1.63,1.5,3.56,2.86,5.77,3s4.63-1.42,4.73-3.62a4.59,4.59,0,0,0-2.07-3.71,19.36,19.36,0,0,0-4-1.93,31.87,31.87,0,0,1-5.38-2.93,8.32,8.32,0,0,1-3.18-3.35,7.78,7.78,0,0,1-.52-2.73c-.17-3.45.58-7.28,3.32-9.38a8.69,8.69,0,0,1,5.91-1.56,17.3,17.3,0,0,1,6,1.78,10.14,10.14,0,0,1,3.84,2.77,2.2,2.2,0,0,1,.58,1.65,2.61,2.61,0,0,1-1.25,1.53,7.57,7.57,0,0,1-2.73,1.41,3,3,0,0,1-2.85-.75c-.29-.35-.49-.79-.81-1.12-1.14-1.2-3.1-2-4.82-.34a6.38,6.38,0,0,0-.92,1.38,1.93,1.93,0,0,0-.15,1.16,5.8,5.8,0,0,0,3,4.2c2,1.15,4.39.93,6.45,1.92a11.48,11.48,0,0,1,5,4.47A9.64,9.64,0,0,1,1115.66,435.42Z" transform="translate(-1046.58 -373.74)" fill="#242944"/></svg>