<svg xmlns="http://www.w3.org/2000/svg" width="75" height="75" viewBox="0 0 75 75"><title>linkedin-hover-icon</title><path d="M210,659.65a14.72,14.72,0,0,0-2.48-4.41,61.89,61.89,0,0,0-5.84-6.26c-2.11-1.74-4.7-2.87-7-4.34a14.66,14.66,0,0,0-4.62-1.65,39.76,39.76,0,0,0-8.57-1.36c-3.06,0-6.08.65-9.14.93-2.33.22-4.71.22-6.9,1.07a18.72,18.72,0,0,0-4,2.41c-5,3.63-10,7.45-13.81,12.42a35.17,35.17,0,0,0-6.9,17.36,24.3,24.3,0,0,0,.94,10.59,45,45,0,0,1,1.65,4.6c.28,1.24.34,2.52.69,3.74,1,3.59,4.35,6.59,6.5,9.55a11.39,11.39,0,0,0,3.5,2.93c2,1.27,3.82,2.82,5.79,4.16A32.36,32.36,0,0,0,179,716.61a45,45,0,0,0,19.31-5.46,30.55,30.55,0,0,0,7.14-4.94c4.23-4.09,6.6-9.77,8.31-15.44a39.93,39.93,0,0,0,1.69-8C216.12,674.78,213.07,667,210,659.65Zm-44.92,39.48c.08.72.73,1.38.45,2a2,2,0,0,1-1.62.85,36.39,36.39,0,0,1-5.71.33,2.43,2.43,0,0,1-2.13-.8,2.56,2.56,0,0,1-.27-1.4c-.07-8.68-.06-17.36-.05-26a3.21,3.21,0,0,1,.84-2.66,3,3,0,0,1,1.8-.43c1.52,0,4.83-.7,6.16.05s.89,3.56.7,4.92a34.73,34.73,0,0,0-.07,9.66,24.22,24.22,0,0,1,.54,5C165.55,693.53,164.76,696,165.08,699.13Zm1.06-36.72c-.61,4-5.08,4.69-8.18,3.77a5.17,5.17,0,0,1-3.63-3.38,6.55,6.55,0,0,1-.18-1.58,7.06,7.06,0,0,1,1.17-4.7,5.27,5.27,0,0,1,4.87-1.55,15.57,15.57,0,0,1,4.94,2c.19.67.38,1.34.56,2A8.24,8.24,0,0,1,166.14,662.41Zm35,38.67a1.53,1.53,0,0,1-.26.75,1.39,1.39,0,0,1-.94.39,24.43,24.43,0,0,1-8.65-.25l.51-13.88a30.67,30.67,0,0,0-.23-6.5,3.92,3.92,0,0,0-.81-2c-.87-.92-2.29-.89-3.53-.79a7.16,7.16,0,0,0-3.3.81,6.07,6.07,0,0,0-2.32,4.12,37.5,37.5,0,0,0-.34,7.57,90.21,90.21,0,0,1-.52,10.4,1,1,0,0,1-.24.7,1.12,1.12,0,0,1-.84.21A53.16,53.16,0,0,1,173,702a1.81,1.81,0,0,1-1.38-.69,2,2,0,0,1-.17-.91q-.14-8.26.22-16.54a20.38,20.38,0,0,0-.1-4.28,34.9,34.9,0,0,1-.65-3.48,12.24,12.24,0,0,1,.53-3.59,2.4,2.4,0,0,1,.43-1,2.26,2.26,0,0,1,1.36-.59,23.53,23.53,0,0,1,4.59-.33,2.63,2.63,0,0,1,2,.73c.32.38.31,3.33.69,3.51.8.39,1.49-2.75,3.4-4.07,1.47-1,3.47-.78,5.24-.83,2.42-.07,5-.09,7.05,1.22s3.08,3.53,3.89,5.76a18.1,18.1,0,0,1,.78,2.5,28.89,28.89,0,0,1,.56,5.16C201.69,690.09,201.93,695.64,201.09,701.08Z" transform="translate(-140.52 -641.63)" fill="#f6df92"/></svg>