<svg xmlns="http://www.w3.org/2000/svg" width="75" height="75" viewBox="0 0 75 75"><title>ps-icon</title><path d="M1269.16,305.53c.93,1.3.87,3,.74,4.59a4.54,4.54,0,0,1-.41,1.76,4,4,0,0,1-2.69,1.66,16.47,16.47,0,0,1-6.52.25.91.91,0,0,1-.54-.22,1,1,0,0,1-.15-.69c.06-2.46.18-4.91.35-7.38,0-.67-.13-1.93.59-2.29s2.37.1,3.17.18a14.35,14.35,0,0,1,3,.48A4.71,4.71,0,0,1,1269.16,305.53Z" transform="translate(-1236.42 -277.61)" fill="#242944"/><path d="M1311.32,319.07c-.25-6.13-1.11-12.23-.78-18.36.29-5.39,1.4-11.2-1.28-15.9-2-3.57-6-5.73-10-6.59s-8.21-.61-12.32-.41q-12.08.6-24.17.47c-6.44-.06-14.3-1.75-20,2a13.27,13.27,0,0,0-5.58,7.63,25.86,25.86,0,0,0-.57,6q-.4,24,.38,48a16.41,16.41,0,0,0,.52,4.26,8.23,8.23,0,0,0,3.89,4.77c2.34,1.28,5.12,1.34,7.77,1.37l9.89.13c12.53.17,25,.34,37.58.07,3-.06,6.05-.2,8.56-1.73a11.4,11.4,0,0,0,4.59-6.33,32.41,32.41,0,0,0,1.18-7.86A159.39,159.39,0,0,0,1311.32,319.07Zm-34.91-6.87c-.44,1.42-1.63,2.47-2.35,3.78a5.28,5.28,0,0,1-.71,1.19,3.63,3.63,0,0,1-1,.67,22.44,22.44,0,0,1-10.56,2.28c-.74,0-1.68,0-1.93.74a1.75,1.75,0,0,0,0,.79,30.21,30.21,0,0,1-.17,8.28.78.78,0,0,1-.17.46.81.81,0,0,1-.57.15l-4,0c-.61,0-1.38-.12-1.54-.71a1.42,1.42,0,0,1,0-.35q0-3.81,0-7.62l0-13.37c0-2.25,0-4.5,0-6.77,0-1.59-.78-4.47,1.45-4.57a96,96,0,0,1,11.38.22c2.39.19,4.89.52,6.79,2a8.88,8.88,0,0,1,3,4.8,22.38,22.38,0,0,1,.59,5.72A7.58,7.58,0,0,1,1276.41,312.2Zm19.8,16.52c-.32.45-1.27.55-1.73.86a5.42,5.42,0,0,1-1.48.69,11.74,11.74,0,0,1-3.82.88c-1.14,0-2.25-.29-3.37-.34s-2.06.1-3.07-.05a2.88,2.88,0,0,1-2.4-1.65,3.85,3.85,0,0,1-.17-1.06c-.05-.9-.11-1.8-.16-2.71a1.6,1.6,0,0,1,.21-1.06,1,1,0,0,1,1-.25,4.2,4.2,0,0,1,1,.47c2.17,1.21,4.79,1.24,7.26,1a2.39,2.39,0,0,0,1.81-.77,1.53,1.53,0,0,0,.08-1.47,2.84,2.84,0,0,0-1-1.14,13.4,13.4,0,0,0-2.8-1.42,26.24,26.24,0,0,1-3.53-1.84c-1.73-1.06-3.44-2.48-3.87-4.45a6.57,6.57,0,0,1-.12-1.6,8.35,8.35,0,0,1,1.28-4.48,8,8,0,0,1,5.23-3.09,22.34,22.34,0,0,1,6.22,0l2.2.23a2.08,2.08,0,0,1,1,.26c.72.49.58,1.55.65,2.41,0,.67.29,1.32.4,2s.16,1.79-.62,2-2.12-.88-2.79-1.14a9.41,9.41,0,0,0-4.78-.62c-.92.12-2,.51-2.2,1.4a2.16,2.16,0,0,0,.93,2.09,9.9,9.9,0,0,0,2.7,1.45c1.13.45,2.27.92,3.41,1.39a8.56,8.56,0,0,1,1.44.67,7,7,0,0,1,3.19,5.57A10.69,10.69,0,0,1,1296.21,328.72Z" transform="translate(-1236.42 -277.61)" fill="#242944"/><path d="M1269.9,310.12a4.54,4.54,0,0,1-.41,1.76,4,4,0,0,1-2.69,1.66,16.47,16.47,0,0,1-6.52.25.91.91,0,0,1-.54-.22,1,1,0,0,1-.15-.69c.06-2.46.18-4.91.35-7.38,0-.67-.13-1.93.59-2.29s2.37.1,3.17.18a14.35,14.35,0,0,1,3,.48,4.71,4.71,0,0,1,2.47,1.66C1270.09,306.83,1270,308.54,1269.9,310.12Z" transform="translate(-1236.42 -277.61)" fill="#242944"/><path d="M1269.9,310.12a4.54,4.54,0,0,1-.41,1.76,4,4,0,0,1-2.69,1.66,16.47,16.47,0,0,1-6.52.25.91.91,0,0,1-.54-.22,1,1,0,0,1-.15-.69c.06-2.46.18-4.91.35-7.38,0-.67-.13-1.93.59-2.29s2.37.1,3.17.18a14.35,14.35,0,0,1,3,.48,4.71,4.71,0,0,1,2.47,1.66C1270.09,306.83,1270,308.54,1269.9,310.12Z" transform="translate(-1236.42 -277.61)" fill="#242944"/></svg>